<svg xmlns="http://www.w3.org/2000/svg" width="120" height="120" viewBox="0 0 120 120"><svg x="0.0" y="0.0" width="120.0" height="120.0" viewBox="0 0 120 120"><path d="M78.5 41.4 A28 28 0 1 0 78.5 77.6" fill="none" stroke="#FFFFFF" stroke-width="12" stroke-linecap="round"/><path d="M78.5 41.4 L92 32" stroke="#FFFFFF" stroke-width="12" stroke-linecap="round"/><circle cx="48" cy="104" r="7" fill="#FFFFFF"/><circle cx="72" cy="104" r="7" fill="#FFFFFF"/><path d="M60 49 Q60 60 71 60 Q60 60 60 71 Q60 60 49 60 Q60 60 60 49 Z" fill="#FF2E97"/><path d="M98 6 Q98 14 106 14 Q98 14 98 22 Q98 14 90 14 Q98 14 98 6 Z" fill="#00E5FF"/><path d="M20 16 Q20 22 26 22 Q20 22 20 28 Q20 22 14 22 Q20 22 20 16 Z" fill="#FFC233"/><circle cx="104" cy="54" r="4.5" fill="#A78BFA"/><circle cx="36" cy="10" r="3.5" fill="#00E5FF"/></svg></svg>